<svg width="20" height="20" viewBox="0 0 20 20" fill="none" xmlns="http://www.w3.org/2000/svg">
<path d="M9.99775 15.1277C7.15941 15.1277 4.87 12.8383 4.87 9.99998C4.87 7.16165 7.15941 4.87224 9.99775 4.87224C12.8361 4.87224 15.1255 7.16165 15.1255 9.99998C15.1255 12.8383 12.8361 15.1277 9.99775 15.1277ZM9.99775 6.66628C8.16354 6.66628 6.66404 8.16131 6.66404 9.99998C6.66404 11.8387 8.15908 13.3337 9.99775 13.3337C11.8364 13.3337 13.3315 11.8387 13.3315 9.99998C13.3315 8.16131 11.832 6.66628 9.99775 6.66628ZM16.5313 15.3375C16.5313 14.6725 15.9957 14.1415 15.3352 14.1415C14.6703 14.1415 14.1392 14.677 14.1392 15.3375C14.1392 15.998 14.6748 16.5335 15.3352 16.5335C15.9957 16.5335 16.5313 15.998 16.5313 15.3375ZM19.9275 14.1236C19.8516 15.7257 19.4856 17.1449 18.3119 18.3142C17.1427 19.4834 15.7235 19.8494 14.1214 19.9297C12.4701 20.0234 7.5209 20.0234 5.86967 19.9297C4.27199 19.8538 2.85282 19.4879 1.67911 18.3186C0.505392 17.1494 0.143905 15.7302 0.0635751 14.1281C-0.0301435 12.4768 -0.0301435 7.5276 0.0635751 5.87637C0.139443 4.27422 0.505392 2.85505 1.67911 1.6858C2.85282 0.516552 4.26752 0.150604 5.86967 0.0702744C7.5209 -0.0234451 12.4701 -0.0234451 14.1214 0.0702744C15.7235 0.146141 17.1427 0.512089 18.3119 1.6858C19.4812 2.85505 19.8471 4.27422 19.9275 5.87637C20.0212 7.5276 20.0212 12.4724 19.9275 14.1236ZM17.7942 4.10464C17.4461 3.22993 16.7723 2.55605 15.8931 2.20349C14.5766 1.68134 11.4526 1.80184 9.99775 1.80184C8.54288 1.80184 5.41446 1.6858 4.1024 2.20349C3.22769 2.55159 2.55381 3.22547 2.20125 4.10464C1.67911 5.42116 1.7996 8.54511 1.7996 9.99998C1.7996 11.4549 1.68357 14.5833 2.20125 15.8953C2.54935 16.77 3.22323 17.4439 4.1024 17.7965C5.41892 18.3186 8.54288 18.1981 9.99775 18.1981C11.4526 18.1981 14.581 18.3142 15.8931 17.7965C16.7678 17.4484 17.4417 16.7745 17.7942 15.8953C18.3164 14.5788 18.1959 11.4549 18.1959 9.99998C18.1959 8.54511 18.3164 5.4167 17.7942 4.10464Z" fill="white"/>
</svg>
